<svg xmlns="http://www.w3.org/2000/svg" width="1392.09" height="736.197" viewBox="0 0 1392.09 736.197">
  <g id="Group_458" data-name="Group 458" transform="translate(-5246.114 9785.88)">
    <path id="Path_488" data-name="Path 488" d="M637.588,0,539.416,137.819C15.049,317.5,3.077,484.066,11.791,508.121c-25.573-48.877-9.118-116.534,45.174-180.529,86.311-102,233.416-182.757,320.6-223.713C377.569,103.879,536.813,31.5,637.588,0Z" transform="translate(5246.114 -9785.88)" fill="#007ac2"/>
    <path id="Path_489" data-name="Path 489" d="M466.554,165.79S-38.185,338.064,21.732,467.015a48.721,48.721,0,0,0,13.838,16.274c-21.814-29.708,38.673-116,362.771-221.68l68.214-95.819" transform="translate(5252.696 -9720.879)" fill="#007ac2"/>
    <path id="Path_490" data-name="Path 490" d="M217.758,325.157C142.055,346.735,8.941,405.9,45.735,445.978a35.08,35.08,0,0,0,6.6,5.123c-32.019-31.267,165.1-76.441,227.221-85.476l51.369-72.055C305.935,299.194,224.844,323.125,217.758,325.157Z" transform="translate(5261.578 -9670.762)" fill="#007ac2"/>
    <g id="Group_390" data-name="Group 390" transform="translate(5632.67 -9403.25)">
      <path id="Path_485" data-name="Path 485" d="M514.789,322.8c-43.309,0-73.267,40.706-73.267,77.958,0,32.561,22.552,53.972,56.1,53.972A72.515,72.515,0,0,0,547.2,435.928l.807-.654-11.137-13.838-.891.655a54.836,54.836,0,0,1-37.587,14.491A34.107,34.107,0,0,1,462,404.911a33.455,33.455,0,0,1,0-4.719v-3.174h97.044v-.738a69.1,69.1,0,0,0,4.635-24.418,46.3,46.3,0,0,0-43.475-49A47.673,47.673,0,0,0,514.789,322.8ZM542.882,379.8H465.536c8.144-23.666,26.631-39.077,48.279-39.077a28.26,28.26,0,0,1,29.958,26.45,31.16,31.16,0,0,1-.069,4.413s-.654,6.682-.821,8.061Zm-99.244-64.232A69.607,69.607,0,0,0,379.6,278.841c-54.293,0-101.931,48.849-101.931,105.425,0,41.61,29.875,70.677,72.626,70.677A89.551,89.551,0,0,0,416.881,426.6l.738-.807-14.2-14-.821.738a69.034,69.034,0,0,1-51.285,22.385,48.848,48.848,0,0,1-51.508-46.092,47.31,47.31,0,0,1,0-5.276c0-45.188,36.474-84.92,78.069-84.92a50.256,50.256,0,0,1,47.819,27.94l.571,1.058L444.5,316.386Zm782.6-40.706s-19.128,71.471-20.506,77.011a48.223,48.223,0,0,0-46.329-28.663c-38.422,0-70.747,35.833-70.747,78.083,0,31.1,21.173,53.652,50.311,53.652a60.667,60.667,0,0,0,44.784-21.494c-1.393,5.123-4.887,18.557-4.887,18.557h20.757l47.221-177.147Zm-82.135,161.277c-20.27,0-33.954-14.743-33.954-36.725,0-31.907,22.8-57.884,50.715-57.884a36.084,36.084,0,0,1,37.294,34.8v2.408c0,28.983-26.7,57.4-54.055,57.4ZM668.255,322.8A61.668,61.668,0,0,0,623.374,344.3l5.039-18.891H607.531L563.513,489.942h20.881s16.274-59.75,17.249-64.469a48.85,48.85,0,0,0,46.566,28.97c38.269,0,70.664-35.736,70.664-78.07C718.567,344.786,697.894,322.8,668.255,322.8ZM646.19,435.969a36.293,36.293,0,0,1-37.365-35.22v-2.31c0-28.817,26.869-56.993,54.139-56.993,20.589,0,33.954,14.422,33.954,36.807C697.072,409.992,674.2,435.969,646.19,435.969ZM958.163,322.8c-43.155,0-73.267,40.706-73.267,77.958,0,32.561,22.552,53.972,56.172,53.972a72.671,72.671,0,0,0,49.086-18.808l.738-.654-10.664-13.838-.821.655a54.837,54.837,0,0,1-37.587,14.491,34.106,34.106,0,0,1-36.39-31.671,33.345,33.345,0,0,1,0-4.719v-3.174h96.793v-.738a71.133,71.133,0,0,0,4.65-24.418,46.414,46.414,0,0,0-43.657-49A48.369,48.369,0,0,0,958.163,322.8ZM986.242,379.8H908.757c8.143-23.666,26.617-39.077,48.362-39.077a28.331,28.331,0,0,1,29.945,26.617,28.837,28.837,0,0,1,0,4.177s-.571,6.682-.739,8.061Zm32.575,72.208h20.993l34.441-126.18h-21.007ZM1064.9,278.354l-6.2,22.637h23.666l6.181-22.637ZM821.875,323.139a54.848,54.848,0,0,0-40.705,20.13l18.237-68.381H778.525l-47.832,177.2h20.881l18.793-71.4c6.278-22.706,24.432-39.244,43.893-39.244,16.706,0,26.785,9.285,26.785,24.835a52.294,52.294,0,0,1-1.894,13.6l-19.128,71.638h20.882L859.95,382a80.982,80.982,0,0,0,3.173-19.49,37.7,37.7,0,0,0-35.6-39.675,38.391,38.391,0,0,0-5.568.112Z" transform="translate(-277.67 -274.86)"/>
      <path id="Path_486" data-name="Path 486" d="M989.984,369.19A22.956,22.956,0,0,0,967,392.132v.417h0a22.956,22.956,0,1,0,22.956-23.039Zm0,41.847a18.891,18.891,0,1,1,18.781-19.059h0a18.642,18.642,0,0,1-18.237,19.045h-.572Z" transform="translate(-7.378 -237.87)"/>
      <path id="Path_487" data-name="Path 487" d="M976.61,376.431v24.418h5.568v-8.13h4.079l6.432,8.13h6.961l-7.489-9.843a7.321,7.321,0,0,0,5.206-6.849,6.8,6.8,0,0,0-2.117-5.207,10.1,10.1,0,0,0-7.4-2.687Zm10.985,5.206c.974,0,3.995,0,3.995,2.784s-3.173,3.007-4.176,3.007h-5.3v-5.777Z" transform="translate(-3.608 -235.104)"/>
      <path id="Path_491" data-name="Path 491" d="M515.448,532.91l-3.341-23.832H479.545L467.17,532.924l-10.33-.571L501.527,452h12.208l12.78,80.353Zm-8.715-66.1a75.347,75.347,0,0,1-.807-7.574c0-.167-1.879,4.065-3.661,7.574l-18.64,34.427h27.731Z" transform="translate(-207.419 -205.403)"/>
      <path id="Path_492" data-name="Path 492" d="M554.216,480.249c-.571,3.258-1.629,6.836-1.629,6.836A32.615,32.615,0,0,1,574,473.651c12.458,0,16.287,9.605,16.287,19.865,0,16.775-9.286,41.846-28.9,41.846A24.49,24.49,0,0,1,544.68,528.7c-.571,2.6-1.544,5.443-1.544,5.443H533s3.759-12.863,5.708-23.277L550.6,449.61l9.927-2.2Zm-8.144,41.527a26.258,26.258,0,0,0,15.55,5.29c13.267,0,17.917-22.065,17.917-32.575,0-6.432-1.8-12.446-8.965-12.446-5.569,0-13.017,6.836-19.365,14.158Z" transform="translate(-177.555 -207.198)"/>
      <path id="Path_493" data-name="Path 493" d="M593.1,503.48a30.461,30.461,0,0,0,0,4.483C593.1,515.286,595.39,520,603.2,520a45.486,45.486,0,0,0,22.274-8.8l-1.629,9.2a46.673,46.673,0,0,1-23.666,7.573c-13.754,0-17.5-8.784-17.5-19.043,0-18.892,10.329-42.668,32.559-42.668,8.145,0,17.752,4.176,17.752,12.946C632.266,497.913,598.229,502.9,593.1,503.48Zm28.818-23.123c0-3.981-3.744-6.264-9.034-6.264-11.472,0-16.929,11.805-19.044,22.956,6.5-1.239,28.079-5.792,28.079-16.706Z" transform="translate(-158.073 -199.802)"/>
      <path id="Path_494" data-name="Path 494" d="M663.71,479.01H647.42L640.1,516.6a21.341,21.341,0,0,0,0,3.258c0,2.6,1.057,3.828,4.065,3.828a41.083,41.083,0,0,0,13.03-4.4l-1.141,8.143a36.731,36.731,0,0,1-16.289,4.566c-7.573,0-10.008-3.021-10.008-8.631a32.2,32.2,0,0,1,.737-6.431l7.574-37.588H625.69L626.9,473l11.888-1.8,5.916-14.2h7.171L648.4,471.52h16.287Z" transform="translate(-141.207 -203.437)"/>
      <path id="Path_495" data-name="Path 495" d="M695.794,479.01H679.506L672.184,516.6a15.931,15.931,0,0,0,0,3.258c0,2.6,1.141,3.828,4.176,3.828a40.66,40.66,0,0,0,12.946-4.4l-1.06,8.143a36.722,36.722,0,0,1-16.286,4.566c-7.572,0-10.009-3.021-10.009-8.631a26.908,26.908,0,0,1,.738-6.431l7.559-37.588H658.61L659.836,473l11.845-1.8,5.792-14.2h7.239l-3.494,14.561h16.288Z" transform="translate(-128.3 -203.437)"/>
      <path id="Path_496" data-name="Path 496" d="M700.2,503.48a34.164,34.164,0,0,0,0,4.483c0,7.323,2.2,12.041,10.093,12.041a45.014,45.014,0,0,0,22.149-8.8l-1.629,9.2a46.675,46.675,0,0,1-23.666,7.573c-13.753,0-17.429-8.784-17.429-19.043,0-18.892,10.26-42.668,32.575-42.668,8.131,0,17.667,4.176,17.667,12.946C739.03,497.913,705.423,502.9,700.2,503.48Zm28.885-23.137c0-3.981-3.828-6.264-9.034-6.264-11.569,0-17.026,11.8-19.141,22.956C707.526,495.81,729.088,491.257,729.088,480.343Z" transform="translate(-116.101 -199.802)"/>
      <path id="Path_497" data-name="Path 497" d="M750.28,475.012a27.049,27.049,0,0,1,15.633-8.632,24.952,24.952,0,0,1,4.971.487l-2.618,8.8a50.668,50.668,0,0,0-5.57-.653c-2.686,0-5.053.807-13.684,8.143l-8.13,43.712H731l9.117-46.4a100.966,100.966,0,0,0,1.31-12.779h9.842A49.717,49.717,0,0,1,750.28,475.012Z" transform="translate(-99.917 -199.766)"/>
      <path id="Path_498" data-name="Path 498" d="M835.843,526.461H824.121l-1.947-34.4V479.686s-2.285,6.96-4.568,12.375l-15.311,34.428h-12.21l-5.945-59.1,10.915-.4,2.784,40.705v10.733c0,.167,2.617-7.239,4.176-10.9l17.417-40.135h10.454s1.7,38.979,1.7,40.135v10.9c0,.251,2.6-6.5,4.481-10.413l19.156-40.733,10.747.487Z" transform="translate(-79.079 -199.524)"/>
      <path id="Path_499" data-name="Path 499" d="M858.768,527.973c-11.889,0-15.148-9.606-15.148-19.782,0-17.832,9.746-41.931,30.46-41.931a24.928,24.928,0,0,1,14.242,4.65c.653-1.713,1.391-3.341,1.391-3.341h8.729s-.975,3.745-2.116,9.035l-5.138,25.406a238.989,238.989,0,0,0-2.491,24.418H878.77a64.968,64.968,0,0,1,1.144-11.889A28.281,28.281,0,0,1,858.768,527.973ZM872.605,474c-13.672,0-18.642,20.881-18.642,32.019,0,6.751,1.392,13.6,8.143,13.6,4.97,0,11.554-5.457,18.558-14.172,1.057-5.86,2.783-14.659,5.568-27.522a24.487,24.487,0,0,0-13.685-3.982Z" transform="translate(-55.754 -199.811)"/>
      <path id="Path_500" data-name="Path 500" d="M908.325,536.923a32.557,32.557,0,0,1-12.139,12.7,36.788,36.788,0,0,1-11.807,3.509V545a20.886,20.886,0,0,0,15.483-10.343l4.468-7.49L893.346,467.3l10.581-.4,6.18,38.673a66.134,66.134,0,0,1,.5,8.129v3.912l26.783-49.991,10.247.654Z" transform="translate(-39.772 -199.56)"/>
      <path id="Path_501" data-name="Path 501" d="M931.218,514.761a5.778,5.778,0,0,1-6.183-5.345,4.267,4.267,0,0,1,0-.836,8.134,8.134,0,0,1,7.643-8.618h.5a5.782,5.782,0,0,1,6.112,5.43,4.545,4.545,0,0,1,0,.752,8.13,8.13,0,0,1-7.628,8.617Z" transform="translate(-23.84 -186.595)"/>
    </g>
  </g>
</svg>
